<svg xmlns="http://www.w3.org/2000/svg" fill="none" viewBox="0 0 18 18">
  <defs/>
  <g stroke="#E2E2E9" stroke-linecap="round" stroke-linejoin="round" stroke-width="2" clip-path="url(#clip0)">
    <path d="M13.5 3h-9A1.5 1.5 0 003 4.5v9A1.5 1.5 0 004.5 15h9a1.5 1.5 0 001.5-1.5v-9A1.5 1.5 0 0013.5 3z"/>
    <path
      d="M6.75 6.75h4.5v4.5h-4.5v-4.5zM6.75.75V3M11.25.75V3M6.75 15v2.25M11.25 15v2.25M15 6.75h2.25M15 10.5h2.25M.75 6.75H3M.75 10.5H3"/>
  </g>
  <defs>
    <clipPath id="clip0">
      <path fill="#fff" d="M0 0h18v18H0z"/>
    </clipPath>
  </defs>
</svg>
